<?xml version="1.0" encoding="utf-8"?>
<!-- Generator: Adobe Illustrator 23.0.1, SVG Export Plug-In . SVG Version: 6.00 Build 0)  -->
<svg version="1.1" id="Layer_1" xmlns="http://www.w3.org/2000/svg" xmlns:xlink="http://www.w3.org/1999/xlink" x="0px" y="0px"
	 viewBox="0 0 240.2 287.6" style="enable-background:new 0 0 240.2 287.6;" xml:space="preserve">
<style type="text/css">
	.st0{fill:#A01212;}
	.st1{fill:#FFFFFF;}
	.st2{fill:#842328;}
	.st3{opacity:0.1;enable-background:new    ;}
	.st4{fill:#333333;}
	.st5{fill:#E6E7E8;}
	.st6{opacity:0.1;fill:#FFFFFF;enable-background:new    ;}
	.st7{fill:#621819;}
	.st8{fill:#1C1C1C;}
</style>
<title>Artboard 1</title>
<polygon points="240.2,204 120.1,287.6 0,204 0,37.1 120.1,0 240.2,37.1 "/>
<polygon class="st0" points="229.8,198.8 120.1,275.1 10.5,198.8 10.5,46.4 120.1,12.5 229.8,46.4 "/>
<polygon class="st1" points="229.8,198.8 120.1,275.1 10.5,198.8 10.5,46.4 120.1,12.5 229.8,46.4 "/>
<polygon class="st2" points="67.3,60.1 67.3,199.8 32.3,180.2 32.3,143.9 10.5,136.8 10.5,72.7 "/>
<polygon class="st3" points="120.1,12.5 120.1,275.1 229.8,198.8 229.8,46.4 "/>
<polygon class="st4" points="120.1,12.5 87.1,22.7 87.1,252.1 120.1,275.1 153.1,252.4 153.1,22.7 "/>
<polygon class="st1" points="67.3,60.1 87.1,54.5 99.6,51.1 99.6,220 67.3,199.8 "/>
<polygon class="st2" points="140.6,202.5 167.8,186.8 167.8,202.9 204.1,180.4 204.1,130.6 140.6,158.4 "/>
<polygon class="st2" points="171.2,60.1 202.5,66.7 202.5,102.4 171.3,114.4 "/>
<polygon class="st5" points="140.6,18.9 140.6,158.4 160.4,149.7 160.4,25 "/>
<polygon class="st6" points="120.1,12.5 87.1,22.7 87.1,252.1 120.1,275.1 "/>
<polygon class="st4" points="87.1,212.1 99.6,208.1 99.6,220 "/>
<polygon class="st7" points="67.3,169.9 67.3,199.8 32.3,180.2 "/>
<polygon class="st2" points="32.3,180.2 32.3,143.9 67.3,133.1 67.3,169.9 "/>
<polygon class="st7" points="10.5,136.8 67.3,119.4 67.3,133.1 32.3,143.9 "/>
<polygon class="st2" points="167.8,186.8 140.6,178.5 140.6,202.5 "/>
<polygon class="st7" points="167.8,202.9 204.1,180.4 140.6,158.4 140.6,178.5 167.8,186.8 "/>
<polygon class="st7" points="171.3,114.4 202.5,102.4 171.3,93.9 "/>
<polygon class="st5" points="140.6,220 167.8,202.9 167.8,186.8 140.6,202.5 "/>
<polygon class="st1" points="86.5,22.9 86.5,37.6 99.5,18.9 "/>
<polygon class="st8" points="153.1,212.2 140.6,208.1 140.6,220 "/>
</svg>
