<?xml version="1.0" encoding="utf-8"?>
<!-- Generator: Adobe Illustrator 23.0.1, SVG Export Plug-In . SVG Version: 6.00 Build 0)  -->
<svg version="1.1" id="Layer_1" xmlns="http://www.w3.org/2000/svg" xmlns:xlink="http://www.w3.org/1999/xlink" x="0px" y="0px"
	 viewBox="0 0 536 600.8" style="enable-background:new 0 0 536 600.8;" xml:space="preserve">
<style type="text/css">
	.st0{fill:#E94901;}
	.st1{fill:#FE5901;}
</style>
<title>linchpin-logo</title>
<path class="st0" d="M229.2,555.1C115.9,537.8,27.4,452.8,4.9,339.5c-28.2-141.9,68-285,209.9-312.4c0.5-0.1,1-0.1,1.5-0.1v64
	c-2.6,0.7-5.1,1.4-7.7,2.1c-96.4,29-159,126.1-143.9,224.9c11,72.4,50.4,124.8,115.8,157.5c15.4,7.7,31.6,13.2,48.8,15.5
	c0.7,0.4,1.4,0.7,2.2,0.9c17,3.7,34.3,3.6,51.5,2.8c8.1-0.3,16.5-0.8,24.3-3.8c6.2-0.3,12.1-2.2,18-3.9
	c95.1-27.1,159-120.4,147-218.5c-10.7-87.5-59.9-145.4-142.7-175c-3.2-1.1-6.5-2.7-10.1-2.4l0.1-64.8c35.6,7.4,69,20.5,98.8,41.5
	c70.2,49.3,110.5,116.5,116.9,202.2c10,134.6-80.1,253.5-212.1,281.9c-5.2,1.1-10.5,2-15.7,3c-14,1.4-28,3.3-42.1,2.8
	C253.3,557.5,241.3,556,229.2,555.1z"/>
<path class="st1" d="M307.3,491c-7.8,3-16.2,3.4-24.3,3.8c-17.2,0.8-34.5,0.9-51.5-2.8c-0.8-0.2-1.5-0.6-2.2-0.9V118.3
	c0-8.1,0-8.3-8.4-8.2c-3.3,0-4.2-1-4.2-4.2c0.1-5,0.6-10-0.4-14.9V27c0.9-5.1,0.4-10.3,0.4-15.4c0-3.1,1-4.2,4-3.9
	c2.1,0.2,4.3-0.1,6.5,0.1c4,0.3,7.4,0.2,6.4-5.4c-0.4-2.1,1.2-2.3,2.9-2.3c21.1,0,42.2,0.1,63.3,0c2.6,0,3.2,1.2,3,3.3
	c-0.4,3.3,0.8,4.6,4.4,4.6c4,0,9.5-2,11.8,1c2,2.6,0.5,7.7,0.6,11.7c0,2,0,4,0,6l-0.1,64.8c0,4.2-0.2,8.4,0.2,12.5
	c0.5,4.8-0.8,7.3-6.1,6.2s-6.4,1.4-6.4,6.4C307.4,241.3,307.4,366.2,307.3,491z"/>
<path class="st1" d="M229.2,555.1c12,1,24.1,2.4,36.1,2.8c14.1,0.5,28.1-1.4,42.1-2.8c0,10.6-0.2,21.3,0,31.9
	c0.1,3.6-0.6,5.4-4.6,4.8c-3.7-0.6-3.7,2-3.3,4.4c0.5,3.8-1,4.8-4.7,4.7c-17.8-0.2-35.6-0.1-53.4,0c-2.9,0-5-0.3-4.4-4
	s-0.4-5.8-4.7-5.1c-3,0.5-3-1.5-3-3.7C229.3,577,229.3,566,229.2,555.1z"/>
</svg>
