<?xml version="1.0" encoding="utf-8"?>
<!-- Generator: Adobe Illustrator 23.0.1, SVG Export Plug-In . SVG Version: 6.00 Build 0)  -->
<svg version="1.1" id="Layer_1" xmlns="http://www.w3.org/2000/svg" xmlns:xlink="http://www.w3.org/1999/xlink" x="0px" y="0px"
	 viewBox="0 0 82.7 82.7" style="enable-background:new 0 0 82.7 82.7;" xml:space="preserve">
<style type="text/css">
	.st0{fill:#323232;}
	.st1{fill:#EBEBEB;}
</style>
<rect class="st0" width="82.7" height="82.7"/>
<path class="st1" d="M62.9,66.3c-4.1,0-7.9,0-12.1,0c-2.8-11-5.7-22-8.5-33c-0.3,0-0.6,0-0.9-0.1c-2.8,11-5.6,21.9-8.4,33
	c-4.1,0-7.9,0-12.1,0C16.8,50.2,12.7,34,8.4,17.4c3.5,0,6.6,0,10.4,0c2.7,11.6,5.5,23.5,8.5,36.7c3.4-13,6.5-24.8,9.6-36.8
	c3.4,0,6.5,0,10.1,0c3,11.9,6.1,23.7,9.5,37c3-13.1,5.8-24.9,8.6-36.9c3.4,0,6.6,0,10.4,0C71.2,33.9,67.1,50.1,62.9,66.3z"/>
</svg>
